name C:\Users\u0101727\Documents\MyRepositories\upper-imu-dc\Results\main_tracking\Case_45\kinematics.mot
datacolumns 10
datarows 56
range 5.00000000 5.33000000
endheader 
time	clav_prot	clav_elev	scapula_abduction	scapula_elevation	scapula_upward_rot	scapula_winging	plane_elv	shoulder_elv	axial_rot	
          5.00000000	        -23.66465660	          2.12385795	         -0.66233582	         -4.16563934	         35.69981154	         -1.94482002	         68.72698685	         46.18896737	        -22.87633009	
          5.00600000	        -23.56591123	          2.01063569	         -0.73555023	         -4.18396885	         35.33650004	         -1.83855620	         68.58834981	         45.94999443	        -22.75573152	
          5.01200000	        -23.46897784	          1.89745103	         -0.80887794	         -4.20225119	         34.97624190	         -1.73253265	         68.44534800	         45.71269895	        -22.63775267	
          5.01800000	        -23.37619764	          1.78446789	         -0.88632978	         -4.22056091	         34.61925245	         -1.62685399	         68.29800260	         45.47702159	        -22.52242989	
          5.02400000	        -23.29103422	          1.67191564	         -0.97390511	         -4.23899175	         34.26575251	         -1.52161462	         68.14632119	         45.24289553	        -22.40977751	
          5.03000000	        -23.21832287	          1.56009892	         -1.08003361	         -4.25766301	         33.91596465	         -1.41688854	         67.99029896	         45.01024650	        -22.29978594	
          5.03600000	        -23.16398673	          1.44936692	         -1.21506579	         -4.27672416	         33.57010938	         -1.31271743	         67.82991963	         44.77899288	        -22.19241880	
          5.04200000	        -23.13342003	          1.33998656	         -1.38839161	         -4.29635229	         33.22840094	         -1.20910136	         67.66515665	         44.54904615	        -22.08760881	
          5.04800000	        -23.12854843	          1.23193102	         -1.60321574	         -4.31673449	         32.89104119	         -1.10600079	         67.49597721	         44.32031211	        -21.98525168	
          5.05400000	        -23.14607088	          1.12478138	         -1.85345724	         -4.33803642	         32.55820959	         -1.00335479	         67.32235110	         44.09269295	        -21.88519913	
          5.06000000	        -23.17925140	          1.01790685	         -2.12697668	         -4.36037374	         32.23005141	         -0.90110567	         67.14426115	         43.86608919	        -21.78725098	
          5.06600000	        -23.22123210	          0.91074067	         -2.41149312	         -4.38380214	         31.90666857	         -0.79921424	         66.96170970	         43.64039976	        -21.69114724	
          5.07200000	        -23.26684432	          0.80291492	         -2.69780530	         -4.40832310	         31.58811532	         -0.69766206	         66.77472080	         43.41552112	        -21.59656058	
          5.07800000	        -23.31275334	          0.69425575	         -2.98003693	         -4.43389519	         31.27439816	         -0.59644719	         66.58333977	         43.19134588	        -21.50309145	
          5.08400000	        -23.35699321	          0.58473220	         -3.25479660	         -4.46044406	         30.96547812	         -0.49557909	         66.38763194	         42.96776186	        -21.41026567	
          5.09000000	        -23.39849751	          0.47440852	         -3.52033278	         -4.48787010	         30.66127426	         -0.39507465	         66.18768045	         42.74465145	        -21.31753568	
          5.09600000	        -23.43676953	          0.36341031	         -3.77593891	         -4.51605425	         30.36166785	         -0.29495527	         65.98358280	         42.52189146	        -21.22428558	
          5.10200000	        -23.47167355	          0.25190222	         -4.02157572	         -4.54486254	         30.06650655	         -0.19524479	         65.77544663	         42.29935353	        -21.12983910	
          5.10800000	        -23.50330503	          0.14007267	         -4.25763461	         -4.57415018	         29.77560867	         -0.09596784	         65.56338463	         42.07690493	        -21.03347093	
          5.11400000	        -23.53190825	          0.02812325	         -4.48478647	         -4.60376503	         29.48876713	          0.00285164	         65.34750957	         41.85440984	        -20.93441943	
          5.12000000	        -23.55782192	         -0.08373920	         -4.70388071	         -4.63355074	         29.20575316	          0.10119161	         65.12792970	         41.63173103	        -20.83190003	
          5.12600000	        -23.58144113	         -0.19530852	         -4.91587419	         -4.66334941	         28.92631978	          0.19903301	         64.90474499	         41.40873182	        -20.72511831	
          5.13200000	        -23.60318969	         -0.30638392	         -5.12177881	         -4.69300391	         28.65020497	          0.29636060	         64.67804419	         41.18527829	        -20.61328259	
          5.13800000	        -23.62349866	         -0.41677353	         -5.32262069	         -4.72235982	         28.37713499	          0.39316359	         64.44790298	         40.96124141	        -20.49561481	
          5.14400000	        -23.64278982	         -0.52629719	         -5.51940821	         -4.75126708	         28.10682746	          0.48943607	         64.21438263	         40.73649938	        -20.37136058	
          5.15000000	        -23.66146285	         -0.63478865	         -5.71310703	         -4.77958151	         27.83899441	          0.58517721	         63.97752913	         40.51093988	        -20.23979827	
          5.15600000	        -23.67988555	         -0.74209742	         -5.90462045	         -4.80716614	         27.57334530	          0.68039137	         63.73737222	         40.28446230	        -20.10024738	
          5.16200000	        -23.69838687	         -0.84809021	         -6.09477491	         -4.83389263	         27.30959020	          0.77508800	         63.49392425	         40.05697987	        -19.95207688	
          5.16800000	        -23.71725152	         -0.95265258	         -6.28430784	         -4.85964293	         27.04744345	          0.86928149	         63.24717846	         39.82842134	        -19.79471306	
          5.17400000	        -23.73671620	         -1.05569045	         -6.47385794	         -4.88431117	         26.78662786	          0.96299073	         62.99710671	         39.59873232	        -19.62764751	
          5.18000000	        -23.75696661	         -1.15713190	         -6.66395634	         -4.90780591	         26.52687987	          1.05623871	         62.74365693	         39.36787600	        -19.45044496	
          5.18600000	        -23.77813497	         -1.25692897	         -6.85501794	         -4.93005278	         26.26795551	          1.14905178	         62.48675045	         39.13583334	        -19.26275090	
          5.19200000	        -23.80029788	         -1.35505967	         -7.04733285	         -4.95099739	         26.00963726	          1.24145886	         62.22627954	         38.90260250	        -19.06429917	
          5.19800000	        -23.82347562	         -1.45152951	         -7.24106044	         -4.97060808	         25.75174110	          1.33349042	         61.96210598	         38.66819813	        -18.85491850	
          5.20400000	        -23.84763225	         -1.54637268	         -7.43622476	         -4.98887862	         25.49412364	          1.42517744	         61.69406065	         38.43265019	        -18.63453827	
          5.21000000	        -23.87267725	         -1.63965258	         -7.63271347	         -5.00583036	         25.23668869	          1.51655012	         61.42194472	         38.19600257	        -18.40319256	
          5.21600000	        -23.89846903	         -1.73146144	         -7.83028093	         -5.02151364	         24.97939280	          1.60763669	         61.14553250	         37.95831183	        -18.16102202	
          5.22200000	        -23.92481922	         -1.82191922	         -8.02855369	         -5.03600858	         24.72224970	          1.69846214	         60.86457559	         37.71964550	        -17.90827353	
          5.22800000	        -23.95149969	         -1.91117117	         -8.22704251	         -5.04942458	         24.46533259	          1.78904700	         60.57880882	         37.48008084	        -17.64529607	
          5.23400000	        -23.97824975	         -1.99938474	         -8.42515606	         -5.06189904	         24.20877496	          1.87940620	         60.28795683	         37.23970326	        -17.37253431	
          5.24000000	        -24.00478386	         -2.08674580	         -8.62221672	         -5.07359517	         23.95276960	          1.96954807	         59.99174107	         36.99860466	        -17.09051940	
          5.24600000	        -24.03079944	         -2.17345430	         -8.81747769	         -5.08469915	         23.69756611	          2.05947348	         59.68988672	         36.75688152	        -16.79985761	
          5.25200000	        -24.05598455	         -2.25971960	         -9.01014098	         -5.09541656	         23.44346697	          2.14917512	         59.38212927	         36.51463293	        -16.50121754	
          5.25800000	        -24.08002490	         -2.34575563	         -9.19937490	         -5.10596842	         23.19082243	          2.23863702	         59.06821987	         36.27195817	        -16.19531590	
          5.26400000	        -24.10261093	         -2.43177596	         -9.38433244	         -5.11658679	         22.94002425	          2.32783418	         58.74792997	         36.02895443	        -15.88290338	
          5.27000000	        -24.12344465	         -2.51798889	         -9.56416962	         -5.12751015	         22.69149834	          2.41673252	         58.42105451	         35.78571446	        -15.56475114	
          5.27600000	        -24.14224611	         -2.60459284	         -9.73806373	         -5.13897866	         22.44569678	          2.50528904	         58.08741410	         35.54232450	        -15.24163871	
          5.28200000	        -24.15876043	         -2.69177170	         -9.90523277	         -5.15122919	         22.20308877	          2.59345221	         57.74685623	         35.29886274	        -14.91434339	
          5.28800000	        -24.17276251	         -2.77969106	        -10.06495044	         -5.16449083	         21.96415205	          2.68116249	         57.39925503	         35.05539760	        -14.58363242	
          5.29400000	        -24.18406185	         -2.86849459	        -10.21656091	         -5.17898037	         21.72936415	          2.76835311	         57.04451048	         34.81198673	        -14.25025682	
          5.30000000	        -24.19250594	         -2.95830100	        -10.35949076	         -5.19489828	         21.49919417	          2.85495079	         56.68254701	         34.56867620	        -13.91494732	
          5.30600000	        -24.19798192	         -3.04920150	        -10.49325684	         -5.21242501	         21.27409559	          2.94087649	         56.31331145	         34.32549995	        -13.57841196	
          5.31200000	        -24.20041763	         -3.14125758	        -10.61747234	         -5.23171765	         21.05449974	          3.02604617	         55.93677088	         34.08247994	        -13.24133476	
          5.31800000	        -24.19977817	         -3.23449979	        -10.73184338	         -5.25290751	         20.84081171	          3.11037128	         55.55290980	         33.83962583	        -12.90437559	
          5.32400000	        -24.19606134	         -3.32892689	        -10.83616240	         -5.27609831	         20.63340757	          3.19375914	         55.16172699	         33.59693504	        -12.56817039	
          5.33000000	        -24.18929051	         -3.42450578	        -10.93029592	         -5.30136502	         20.43263334	          3.27611316	         54.76323205	         33.35439303	        -12.23333139	
